<svg width="489" height="499" viewBox="0 0 489 499" fill="none" xmlns="http://www.w3.org/2000/svg">
<g clip-path="url(#clip0_103_2)">
<path d="M488.086 1.11499H0.0858154V498.115H488.086V1.11499Z" fill="black"/>
<path d="M213.736 375.115V177.715C213.736 158.115 219.452 142.482 230.886 130.815C242.552 118.915 259.119 112.965 280.586 112.965C288.286 112.965 295.519 113.782 302.286 115.415C309.286 117.048 315.119 119.615 319.786 123.115L307.886 156.015C304.619 153.448 300.886 151.582 296.686 150.415C292.486 149.015 288.169 148.315 283.736 148.315C274.636 148.315 267.752 150.882 263.086 156.015C258.419 160.915 256.086 168.382 256.086 178.415V199.415L257.486 219.015V375.115H213.736ZM182.936 224.615V189.615H307.536V224.615H182.936Z" fill="white"/>
</g>
<defs>
<clipPath id="clip0_103_2">
<rect width="489" height="498" fill="white" transform="translate(0 0.682495)"/>
</clipPath>
</defs>
</svg>
